<?xml version="1.0" encoding="UTF-8"?>
<svg xmlns="http://www.w3.org/2000/svg" xmlns:xlink="http://www.w3.org/1999/xlink" width="40px" height="40px" viewBox="0 0 40 40" version="1.1">
<defs>
<clipPath id="clip1">
  <path d="M 5 0.015625 L 35 0.015625 L 35 40 L 5 40 Z M 5 0.015625 "/>
</clipPath>
<clipPath id="clip2">
  <path d="M 0.0234375 22.085938 L 39.925781 22.085938 L 39.925781 28.777344 L 0.0234375 28.777344 Z M 0.0234375 22.085938 "/>
</clipPath>
<clipPath id="clip3">
  <path d="M 21 11.257812 L 22.324219 11.257812 L 22.324219 14 L 21 14 Z M 21 11.257812 "/>
</clipPath>
<clipPath id="clip4">
  <path d="M 18 11.257812 L 22.324219 11.257812 L 22.324219 20.503906 L 18 20.503906 Z M 18 11.257812 "/>
</clipPath>
<clipPath id="clip5">
  <path d="M 17.628906 17 L 21 17 L 21 20 L 17.628906 20 Z M 17.628906 17 "/>
</clipPath>
</defs>
<g id="surface1">
<g clip-path="url(#clip1)" clip-rule="nonzero">
<path style=" stroke:none;fill-rule:nonzero;fill:rgb(93.72549%,52.54902%,75.686275%);fill-opacity:1;" d="M 5.578125 40.03125 L 8.363281 32.28125 L 8.648438 32.28125 L 6.011719 39.617188 L 33.941406 39.617188 L 31.300781 32.28125 L 31.585938 32.28125 L 34.375 40.03125 Z M 19.976562 0 L 22.765625 7.753906 L 22.480469 7.753906 L 19.976562 0.789062 L 17.472656 7.753906 L 17.1875 7.753906 Z M 19.976562 0 "/>
</g>
<g clip-path="url(#clip2)" clip-rule="nonzero">
<path style=" stroke:none;fill-rule:nonzero;fill:rgb(93.72549%,52.54902%,75.686275%);fill-opacity:1;" d="M 1.164062 28.691406 L 0.226562 28.691406 C 0.167969 28.691406 0.121094 28.660156 0.0820312 28.601562 C 0.0429688 28.539062 0.0234375 28.460938 0.0234375 28.367188 L 0.0234375 22.492188 C 0.0234375 22.398438 0.0429688 22.320312 0.0820312 22.257812 C 0.121094 22.199219 0.167969 22.167969 0.226562 22.167969 L 1.164062 22.167969 C 1.464844 22.167969 1.738281 22.246094 1.984375 22.40625 C 2.234375 22.5625 2.445312 22.789062 2.628906 23.082031 C 2.808594 23.375 2.949219 23.71875 3.046875 24.113281 C 3.144531 24.507812 3.195312 24.945312 3.195312 25.425781 C 3.195312 25.90625 3.144531 26.34375 3.046875 26.742188 C 2.949219 27.140625 2.808594 27.484375 2.628906 27.777344 C 2.445312 28.070312 2.234375 28.296875 1.984375 28.453125 C 1.738281 28.613281 1.464844 28.691406 1.164062 28.691406 Z M 0.429688 22.753906 L 0.429688 28.105469 L 1.164062 28.105469 C 1.484375 28.105469 1.765625 27.992188 2.011719 27.761719 C 2.253906 27.53125 2.445312 27.210938 2.585938 26.808594 C 2.726562 26.40625 2.792969 25.945312 2.792969 25.425781 C 2.792969 24.90625 2.726562 24.445312 2.585938 24.042969 C 2.445312 23.640625 2.253906 23.324219 2.011719 23.09375 C 1.765625 22.867188 1.484375 22.753906 1.164062 22.753906 Z M 4.902344 28.691406 C 4.847656 28.691406 4.796875 28.660156 4.757812 28.59375 C 4.71875 28.53125 4.699219 28.457031 4.699219 28.367188 L 4.699219 22.167969 L 5.105469 22.167969 L 5.105469 28.367188 C 5.105469 28.457031 5.085938 28.53125 5.046875 28.59375 C 5.007812 28.660156 4.960938 28.691406 4.902344 28.691406 Z M 6.34375 22.761719 L 3.464844 22.761719 C 3.410156 22.761719 3.363281 22.734375 3.332031 22.675781 C 3.296875 22.621094 3.277344 22.550781 3.277344 22.46875 C 3.277344 22.378906 3.296875 22.308594 3.332031 22.25 C 3.363281 22.195312 3.410156 22.167969 3.464844 22.167969 L 6.34375 22.167969 C 6.398438 22.167969 6.445312 22.195312 6.480469 22.25 C 6.511719 22.308594 6.53125 22.378906 6.53125 22.46875 C 6.53125 22.550781 6.511719 22.621094 6.480469 22.675781 C 6.445312 22.734375 6.398438 22.761719 6.34375 22.761719 Z M 8.746094 28.777344 C 8.445312 28.777344 8.167969 28.691406 7.914062 28.523438 C 7.660156 28.359375 7.441406 28.125 7.257812 27.824219 C 7.070312 27.523438 6.925781 27.167969 6.824219 26.761719 C 6.722656 26.355469 6.671875 25.910156 6.671875 25.425781 C 6.671875 24.945312 6.722656 24.503906 6.824219 24.097656 C 6.925781 23.691406 7.070312 23.335938 7.257812 23.035156 C 7.441406 22.734375 7.660156 22.5 7.914062 22.335938 C 8.167969 22.167969 8.445312 22.085938 8.746094 22.085938 C 9.046875 22.085938 9.320312 22.167969 9.574219 22.335938 C 9.828125 22.5 10.050781 22.734375 10.234375 23.035156 C 10.421875 23.335938 10.570312 23.691406 10.671875 24.097656 C 10.773438 24.503906 10.824219 24.945312 10.824219 25.425781 C 10.824219 25.910156 10.773438 26.355469 10.671875 26.761719 C 10.570312 27.167969 10.421875 27.523438 10.234375 27.824219 C 10.050781 28.125 9.828125 28.359375 9.574219 28.523438 C 9.320312 28.691406 9.046875 28.777344 8.746094 28.777344 Z M 8.746094 28.15625 C 8.988281 28.15625 9.210938 28.089844 9.414062 27.953125 C 9.617188 27.816406 9.796875 27.625 9.945312 27.375 C 10.097656 27.128906 10.214844 26.839844 10.300781 26.507812 C 10.382812 26.175781 10.425781 25.816406 10.425781 25.425781 C 10.425781 25.042969 10.382812 24.683594 10.300781 24.351562 C 10.214844 24.019531 10.097656 23.730469 9.945312 23.484375 C 9.796875 23.234375 9.617188 23.042969 9.414062 22.90625 C 9.210938 22.769531 8.988281 22.703125 8.746094 22.703125 C 8.503906 22.703125 8.28125 22.769531 8.074219 22.90625 C 7.871094 23.042969 7.695312 23.234375 7.542969 23.484375 C 7.390625 23.730469 7.273438 24.019531 7.191406 24.351562 C 7.109375 24.683594 7.066406 25.042969 7.066406 25.425781 C 7.066406 25.816406 7.109375 26.175781 7.191406 26.507812 C 7.273438 26.839844 7.390625 27.128906 7.542969 27.375 C 7.695312 27.625 7.871094 27.816406 8.074219 27.953125 C 8.28125 28.089844 8.503906 28.15625 8.746094 28.15625 Z M 15.011719 28.777344 C 14.730469 28.777344 14.46875 28.6875 14.226562 28.515625 C 13.980469 28.34375 13.765625 28.101562 13.578125 27.792969 C 13.394531 27.484375 13.25 27.128906 13.144531 26.722656 C 13.039062 26.320312 12.988281 25.886719 12.988281 25.425781 C 12.988281 24.96875 13.039062 24.539062 13.144531 24.132812 C 13.246094 23.730469 13.390625 23.375 13.574219 23.070312 C 13.761719 22.761719 13.976562 22.523438 14.21875 22.347656 C 14.464844 22.171875 14.730469 22.085938 15.011719 22.085938 C 15.261719 22.085938 15.492188 22.144531 15.695312 22.257812 C 15.898438 22.375 16.097656 22.5625 16.289062 22.820312 C 16.320312 22.859375 16.339844 22.902344 16.34375 22.957031 C 16.347656 23.011719 16.34375 23.058594 16.328125 23.105469 C 16.316406 23.15625 16.296875 23.191406 16.269531 23.210938 C 16.261719 23.257812 16.242188 23.289062 16.214844 23.3125 C 16.1875 23.335938 16.15625 23.34375 16.121094 23.335938 C 16.082031 23.332031 16.046875 23.304688 16.011719 23.261719 C 15.878906 23.074219 15.730469 22.933594 15.570312 22.839844 C 15.410156 22.75 15.226562 22.703125 15.011719 22.703125 C 14.789062 22.703125 14.578125 22.773438 14.382812 22.917969 C 14.183594 23.0625 14.011719 23.261719 13.863281 23.511719 C 13.714844 23.761719 13.597656 24.054688 13.511719 24.382812 C 13.425781 24.710938 13.382812 25.058594 13.382812 25.425781 C 13.382812 25.804688 13.425781 26.15625 13.511719 26.488281 C 13.597656 26.816406 13.714844 27.105469 13.863281 27.355469 C 14.011719 27.605469 14.183594 27.800781 14.382812 27.945312 C 14.578125 28.085938 14.789062 28.15625 15.011719 28.15625 C 15.203125 28.15625 15.382812 28.105469 15.554688 28.007812 C 15.722656 27.90625 15.886719 27.761719 16.039062 27.574219 C 16.082031 27.515625 16.125 27.496094 16.171875 27.507812 C 16.21875 27.515625 16.257812 27.550781 16.292969 27.605469 C 16.328125 27.660156 16.34375 27.734375 16.34375 27.824219 C 16.34375 27.867188 16.34375 27.90625 16.335938 27.945312 C 16.328125 27.980469 16.3125 28.019531 16.289062 28.058594 C 16.113281 28.320312 15.914062 28.503906 15.695312 28.613281 C 15.476562 28.722656 15.25 28.777344 15.011719 28.777344 Z M 16.34375 25.75 L 16.34375 27.824219 L 15.949219 27.691406 L 15.949219 26.011719 L 15.136719 26.011719 C 15.078125 26.011719 15.03125 25.984375 14.992188 25.925781 C 14.953125 25.871094 14.933594 25.800781 14.933594 25.71875 C 14.933594 25.632812 14.953125 25.566406 14.992188 25.511719 C 15.03125 25.460938 15.078125 25.433594 15.136719 25.433594 L 16.144531 25.433594 C 16.203125 25.433594 16.25 25.464844 16.289062 25.519531 C 16.328125 25.578125 16.34375 25.65625 16.34375 25.75 Z M 18.230469 28.734375 C 17.949219 28.734375 17.699219 28.636719 17.480469 28.4375 C 17.265625 28.238281 17.097656 27.964844 16.972656 27.613281 C 16.847656 27.261719 16.789062 26.863281 16.789062 26.410156 C 16.789062 25.953125 16.847656 25.550781 16.960938 25.203125 C 17.078125 24.855469 17.238281 24.582031 17.445312 24.382812 C 17.648438 24.179688 17.882812 24.082031 18.152344 24.082031 C 18.414062 24.082031 18.644531 24.175781 18.839844 24.367188 C 19.039062 24.5625 19.1875 24.828125 19.296875 25.167969 C 19.402344 25.507812 19.457031 25.894531 19.457031 26.328125 C 19.457031 26.417969 19.441406 26.488281 19.40625 26.539062 C 19.371094 26.59375 19.324219 26.621094 19.269531 26.621094 L 17.058594 26.621094 L 17.058594 26.085938 L 19.3125 26.085938 L 19.089844 26.34375 C 19.09375 26.023438 19.054688 25.730469 18.980469 25.476562 C 18.902344 25.21875 18.792969 25.019531 18.652344 24.875 C 18.511719 24.730469 18.347656 24.65625 18.152344 24.65625 C 17.953125 24.65625 17.78125 24.730469 17.632812 24.882812 C 17.480469 25.03125 17.367188 25.242188 17.285156 25.507812 C 17.203125 25.769531 17.164062 26.070312 17.164062 26.410156 C 17.164062 26.75 17.207031 27.050781 17.300781 27.3125 C 17.390625 27.574219 17.519531 27.78125 17.679688 27.933594 C 17.835938 28.082031 18.023438 28.15625 18.230469 28.15625 C 18.355469 28.15625 18.480469 28.121094 18.605469 28.050781 C 18.734375 27.984375 18.835938 27.894531 18.910156 27.789062 C 18.949219 27.738281 18.992188 27.714844 19.042969 27.710938 C 19.089844 27.707031 19.132812 27.730469 19.167969 27.773438 C 19.210938 27.839844 19.234375 27.914062 19.234375 27.992188 C 19.238281 28.070312 19.21875 28.136719 19.175781 28.191406 C 19.0625 28.347656 18.917969 28.476562 18.738281 28.578125 C 18.5625 28.683594 18.394531 28.734375 18.230469 28.734375 Z M 22.574219 28.691406 C 22.515625 28.691406 22.46875 28.660156 22.429688 28.601562 C 22.390625 28.539062 22.371094 28.464844 22.371094 28.375 L 22.371094 26.203125 C 22.371094 25.855469 22.332031 25.574219 22.25 25.351562 C 22.167969 25.128906 22.058594 24.960938 21.917969 24.847656 C 21.777344 24.738281 21.617188 24.683594 21.441406 24.683594 C 21.269531 24.683594 21.117188 24.734375 20.980469 24.839844 C 20.84375 24.945312 20.734375 25.089844 20.65625 25.277344 C 20.574219 25.460938 20.535156 25.667969 20.535156 25.902344 L 20.25 25.902344 C 20.257812 25.550781 20.316406 25.238281 20.425781 24.960938 C 20.535156 24.6875 20.683594 24.46875 20.867188 24.308594 C 21.050781 24.152344 21.257812 24.074219 21.484375 24.074219 C 21.730469 24.074219 21.949219 24.152344 22.144531 24.316406 C 22.335938 24.484375 22.492188 24.722656 22.605469 25.042969 C 22.714844 25.359375 22.773438 25.746094 22.773438 26.203125 L 22.773438 28.375 C 22.773438 28.464844 22.753906 28.539062 22.714844 28.601562 C 22.679688 28.660156 22.632812 28.691406 22.574219 28.691406 Z M 20.335938 28.691406 C 20.273438 28.691406 20.226562 28.664062 20.1875 28.605469 C 20.152344 28.546875 20.132812 28.46875 20.132812 28.375 L 20.132812 24.449219 C 20.132812 24.347656 20.152344 24.269531 20.1875 24.210938 C 20.226562 24.152344 20.273438 24.121094 20.335938 24.121094 C 20.398438 24.121094 20.445312 24.152344 20.480469 24.210938 C 20.515625 24.269531 20.535156 24.347656 20.535156 24.449219 L 20.535156 28.375 C 20.535156 28.46875 20.515625 28.546875 20.480469 28.605469 C 20.445312 28.664062 20.398438 28.691406 20.335938 28.691406 Z M 24.949219 28.734375 C 24.667969 28.734375 24.417969 28.636719 24.203125 28.4375 C 23.984375 28.238281 23.8125 27.964844 23.691406 27.613281 C 23.566406 27.261719 23.507812 26.863281 23.507812 26.410156 C 23.507812 25.953125 23.5625 25.550781 23.679688 25.203125 C 23.796875 24.855469 23.957031 24.582031 24.160156 24.382812 C 24.367188 24.179688 24.601562 24.082031 24.871094 24.082031 C 25.132812 24.082031 25.363281 24.175781 25.558594 24.367188 C 25.753906 24.5625 25.90625 24.828125 26.015625 25.167969 C 26.121094 25.507812 26.175781 25.894531 26.175781 26.328125 C 26.175781 26.417969 26.160156 26.488281 26.125 26.539062 C 26.089844 26.59375 26.042969 26.621094 25.988281 26.621094 L 23.777344 26.621094 L 23.777344 26.085938 L 26.03125 26.085938 L 25.804688 26.34375 C 25.808594 26.023438 25.773438 25.730469 25.695312 25.476562 C 25.621094 25.21875 25.511719 25.019531 25.371094 24.875 C 25.230469 24.730469 25.0625 24.65625 24.871094 24.65625 C 24.671875 24.65625 24.5 24.730469 24.347656 24.882812 C 24.199219 25.03125 24.085938 25.242188 24.003906 25.507812 C 23.921875 25.769531 23.878906 26.070312 23.878906 26.410156 C 23.878906 26.75 23.925781 27.050781 24.019531 27.3125 C 24.109375 27.574219 24.238281 27.78125 24.394531 27.933594 C 24.554688 28.082031 24.738281 28.15625 24.949219 28.15625 C 25.074219 28.15625 25.199219 28.121094 25.324219 28.050781 C 25.453125 27.984375 25.554688 27.894531 25.628906 27.789062 C 25.667969 27.738281 25.710938 27.714844 25.757812 27.710938 C 25.808594 27.707031 25.851562 27.730469 25.882812 27.773438 C 25.929688 27.839844 25.953125 27.914062 25.957031 27.992188 C 25.957031 28.070312 25.9375 28.136719 25.894531 28.191406 C 25.78125 28.347656 25.636719 28.476562 25.457031 28.578125 C 25.28125 28.683594 25.109375 28.734375 24.949219 28.734375 Z M 27.25 25.875 L 27.019531 25.875 C 27.03125 25.53125 27.085938 25.222656 27.1875 24.949219 C 27.289062 24.675781 27.425781 24.460938 27.589844 24.304688 C 27.753906 24.148438 27.9375 24.074219 28.136719 24.074219 C 28.296875 24.074219 28.421875 24.109375 28.507812 24.179688 C 28.59375 24.253906 28.628906 24.359375 28.605469 24.5 C 28.59375 24.582031 28.570312 24.636719 28.535156 24.664062 C 28.503906 24.695312 28.464844 24.703125 28.417969 24.699219 C 28.371094 24.695312 28.316406 24.6875 28.257812 24.683594 C 28.0625 24.65625 27.890625 24.6875 27.742188 24.777344 C 27.589844 24.871094 27.46875 25.011719 27.382812 25.199219 C 27.292969 25.390625 27.25 25.613281 27.25 25.875 Z M 27.050781 28.691406 C 26.988281 28.691406 26.9375 28.664062 26.90625 28.609375 C 26.871094 28.554688 26.851562 28.476562 26.851562 28.375 L 26.851562 24.441406 C 26.851562 24.339844 26.871094 24.261719 26.90625 24.207031 C 26.9375 24.148438 26.988281 24.121094 27.050781 24.121094 C 27.113281 24.121094 27.160156 24.148438 27.195312 24.207031 C 27.230469 24.261719 27.25 24.339844 27.25 24.441406 L 27.25 28.375 C 27.25 28.476562 27.230469 28.554688 27.195312 28.609375 C 27.160156 28.664062 27.113281 28.691406 27.050781 28.691406 Z M 30.28125 28.734375 C 30.015625 28.734375 29.777344 28.632812 29.5625 28.429688 C 29.351562 28.226562 29.183594 27.949219 29.0625 27.597656 C 28.9375 27.246094 28.878906 26.851562 28.878906 26.410156 C 28.878906 25.964844 28.941406 25.566406 29.066406 25.21875 C 29.195312 24.867188 29.367188 24.589844 29.585938 24.386719 C 29.804688 24.183594 30.050781 24.082031 30.324219 24.082031 C 30.597656 24.082031 30.84375 24.183594 31.058594 24.386719 C 31.277344 24.589844 31.449219 24.867188 31.574219 25.21875 C 31.703125 25.566406 31.765625 25.964844 31.769531 26.410156 L 31.609375 26.613281 C 31.609375 27.011719 31.550781 27.375 31.433594 27.691406 C 31.320312 28.015625 31.160156 28.265625 30.960938 28.453125 C 30.761719 28.640625 30.535156 28.734375 30.28125 28.734375 Z M 30.324219 28.148438 C 30.523438 28.148438 30.703125 28.074219 30.863281 27.921875 C 31.019531 27.773438 31.144531 27.566406 31.238281 27.300781 C 31.328125 27.035156 31.375 26.738281 31.375 26.410156 C 31.375 26.078125 31.328125 25.78125 31.238281 25.519531 C 31.144531 25.257812 31.019531 25.046875 30.863281 24.894531 C 30.703125 24.742188 30.523438 24.664062 30.324219 24.664062 C 30.125 24.664062 29.949219 24.742188 29.789062 24.894531 C 29.628906 25.046875 29.5 25.257812 29.40625 25.519531 C 29.3125 25.78125 29.269531 26.078125 29.269531 26.410156 C 29.269531 26.738281 29.3125 27.035156 29.40625 27.300781 C 29.5 27.566406 29.628906 27.773438 29.789062 27.921875 C 29.949219 28.074219 30.125 28.148438 30.324219 28.148438 Z M 31.566406 28.691406 C 31.507812 28.691406 31.460938 28.664062 31.421875 28.605469 C 31.382812 28.546875 31.363281 28.46875 31.363281 28.375 L 31.363281 26.945312 L 31.464844 26.285156 L 31.769531 26.410156 L 31.769531 28.375 C 31.769531 28.46875 31.75 28.546875 31.714844 28.605469 C 31.675781 28.664062 31.628906 28.691406 31.566406 28.691406 Z M 33.773438 28.691406 L 33.664062 28.691406 C 33.480469 28.691406 33.316406 28.621094 33.171875 28.484375 C 33.03125 28.34375 32.914062 28.152344 32.832031 27.910156 C 32.75 27.667969 32.707031 27.390625 32.707031 27.078125 L 32.707031 22.996094 C 32.707031 22.898438 32.726562 22.820312 32.761719 22.761719 C 32.796875 22.699219 32.847656 22.667969 32.90625 22.667969 C 32.964844 22.667969 33.011719 22.699219 33.050781 22.761719 C 33.089844 22.820312 33.109375 22.898438 33.109375 22.996094 L 33.109375 27.078125 C 33.109375 27.363281 33.160156 27.597656 33.265625 27.777344 C 33.367188 27.957031 33.503906 28.050781 33.664062 28.050781 L 33.804688 28.050781 C 33.863281 28.050781 33.90625 28.078125 33.941406 28.140625 C 33.976562 28.203125 33.992188 28.28125 33.992188 28.375 C 33.992188 28.46875 33.972656 28.546875 33.929688 28.605469 C 33.890625 28.664062 33.835938 28.691406 33.773438 28.691406 Z M 33.695312 24.847656 L 32.371094 24.847656 C 32.316406 24.847656 32.273438 24.824219 32.238281 24.769531 C 32.203125 24.714844 32.1875 24.652344 32.1875 24.574219 C 32.1875 24.488281 32.203125 24.421875 32.238281 24.367188 C 32.273438 24.316406 32.316406 24.289062 32.371094 24.289062 L 33.695312 24.289062 C 33.75 24.289062 33.792969 24.316406 33.828125 24.367188 C 33.863281 24.421875 33.878906 24.488281 33.878906 24.574219 C 33.878906 24.652344 33.863281 24.714844 33.828125 24.769531 C 33.792969 24.824219 33.75 24.847656 33.695312 24.847656 Z M 35.9375 28.734375 C 35.660156 28.734375 35.414062 28.632812 35.195312 28.433594 C 34.976562 28.234375 34.804688 27.957031 34.679688 27.605469 C 34.554688 27.253906 34.492188 26.855469 34.492188 26.410156 C 34.492188 25.960938 34.554688 25.558594 34.679688 25.207031 C 34.804688 24.859375 34.976562 24.582031 35.195312 24.382812 C 35.414062 24.179688 35.660156 24.082031 35.9375 24.082031 C 36.214844 24.082031 36.464844 24.179688 36.679688 24.382812 C 36.898438 24.582031 37.066406 24.859375 37.191406 25.207031 C 37.316406 25.558594 37.382812 25.960938 37.386719 26.410156 C 37.386719 26.855469 37.324219 27.253906 37.195312 27.605469 C 37.070312 27.957031 36.898438 28.234375 36.679688 28.433594 C 36.464844 28.632812 36.214844 28.734375 35.9375 28.734375 Z M 35.9375 28.148438 C 36.140625 28.148438 36.320312 28.074219 36.480469 27.921875 C 36.640625 27.773438 36.765625 27.566406 36.855469 27.304688 C 36.945312 27.042969 36.988281 26.746094 36.988281 26.410156 C 36.988281 26.078125 36.945312 25.777344 36.855469 25.511719 C 36.765625 25.25 36.640625 25.042969 36.480469 24.890625 C 36.320312 24.742188 36.140625 24.664062 35.9375 24.664062 C 35.738281 24.664062 35.558594 24.742188 35.398438 24.890625 C 35.238281 25.042969 35.113281 25.25 35.019531 25.511719 C 34.929688 25.777344 34.882812 26.078125 34.882812 26.410156 C 34.882812 26.746094 34.929688 27.042969 35.019531 27.304688 C 35.113281 27.566406 35.238281 27.773438 35.398438 27.921875 C 35.558594 28.074219 35.738281 28.148438 35.9375 28.148438 Z M 38.5625 25.875 L 38.332031 25.875 C 38.34375 25.53125 38.398438 25.222656 38.503906 24.949219 C 38.605469 24.675781 38.738281 24.460938 38.902344 24.304688 C 39.066406 24.148438 39.25 24.074219 39.453125 24.074219 C 39.613281 24.074219 39.734375 24.109375 39.820312 24.179688 C 39.90625 24.253906 39.941406 24.359375 39.921875 24.5 C 39.90625 24.582031 39.882812 24.636719 39.851562 24.664062 C 39.816406 24.695312 39.777344 24.703125 39.730469 24.699219 C 39.683594 24.695312 39.628906 24.6875 39.570312 24.683594 C 39.378906 24.65625 39.203125 24.6875 39.054688 24.777344 C 38.902344 24.871094 38.785156 25.011719 38.695312 25.199219 C 38.605469 25.390625 38.5625 25.613281 38.5625 25.875 Z M 38.363281 28.691406 C 38.300781 28.691406 38.253906 28.664062 38.21875 28.609375 C 38.183594 28.554688 38.167969 28.476562 38.167969 28.375 L 38.167969 24.441406 C 38.167969 24.339844 38.183594 24.261719 38.21875 24.207031 C 38.253906 24.148438 38.300781 24.121094 38.363281 24.121094 C 38.425781 24.121094 38.476562 24.148438 38.511719 24.207031 C 38.542969 24.261719 38.5625 24.339844 38.5625 24.441406 L 38.5625 28.375 C 38.5625 28.476562 38.542969 28.554688 38.511719 28.609375 C 38.476562 28.664062 38.425781 28.691406 38.363281 28.691406 Z M 38.363281 28.691406 "/>
</g>
<g clip-path="url(#clip3)" clip-rule="nonzero">
<path style=" stroke:none;fill-rule:nonzero;fill:rgb(83.137255%,59.607843%,79.215686%);fill-opacity:1;" d="M 21.171875 13.105469 L 22.324219 13.105469 L 21.171875 11.257812 Z M 21.171875 13.105469 "/>
</g>
<g clip-path="url(#clip4)" clip-rule="nonzero">
<path style=" stroke:none;fill-rule:nonzero;fill:rgb(83.137255%,59.607843%,79.215686%);fill-opacity:1;" d="M 21.171875 13.199219 L 21.113281 13.199219 L 21.113281 11.257812 L 18.003906 11.257812 L 18.003906 17.351562 L 20.566406 17.351562 L 20.566406 19.734375 L 18.003906 19.734375 L 18.003906 20.503906 L 22.324219 20.503906 L 22.324219 13.199219 Z M 21.171875 13.199219 "/>
</g>
<g clip-path="url(#clip5)" clip-rule="nonzero">
<path style=" stroke:none;fill-rule:nonzero;fill:rgb(83.137255%,59.607843%,79.215686%);fill-opacity:1;" d="M 17.628906 17.445312 L 20.507812 17.445312 L 20.507812 19.640625 L 17.628906 19.640625 Z M 17.628906 17.445312 "/>
</g>
</g>
</svg>
